<svg xmlns="http://www.w3.org/2000/svg" viewBox="0 0 64 64" width="64" height="64">
  <defs>
    <linearGradient id="bg" x1="0" y1="0" x2="1" y2="1">
      <stop offset="0%" stop-color="#00629E"/>
      <stop offset="100%" stop-color="#2E97E6"/>
    </linearGradient>
    <linearGradient id="flame" x1="0" y1="0" x2="0" y2="1">
      <stop offset="0%" stop-color="#FEB700"/>
      <stop offset="100%" stop-color="#FF6D00"/>
    </linearGradient>
  </defs>
  <!-- Rounded square background -->
  <rect x="0" y="0" width="64" height="64" rx="14" fill="url(#bg)"/>
  <!-- Rocket body -->
  <path d="M32 8 C24 14 20 24 20 34 L20 44 L44 44 L44 34 C44 24 40 14 32 8 Z" fill="#FFFFFF"/>
  <!-- Window -->
  <circle cx="32" cy="26" r="5" fill="#00629E"/>
  <circle cx="32" cy="26" r="3" fill="#FEB700"/>
  <!-- Left fin -->
  <path d="M20 38 L12 48 L20 48 Z" fill="#FFFFFF"/>
  <!-- Right fin -->
  <path d="M44 38 L52 48 L44 48 Z" fill="#FFFFFF"/>
  <!-- Flame -->
  <path d="M26 44 L32 58 L38 44 Z" fill="url(#flame)"/>
  <!-- Small star -->
  <circle cx="50" cy="14" r="1.5" fill="#FFFFFF" opacity="0.8"/>
  <circle cx="14" cy="10" r="1.2" fill="#FFFFFF" opacity="0.7"/>
  <circle cx="54" cy="26" r="1" fill="#FFFFFF" opacity="0.6"/>
</svg>
